<?xml version="1.0" encoding="UTF-8" standalone="no"?>
<!DOCTYPE svg PUBLIC "-//W3C//DTD SVG 1.1//EN" "http://www.w3.org/Graphics/SVG/1.1/DTD/svg11.dtd">
<svg width="100%" height="100%" viewBox="0 0 1182 331" version="1.1" xmlns="http://www.w3.org/2000/svg" xmlns:xlink="http://www.w3.org/1999/xlink" xml:space="preserve" xmlns:serif="http://www.serif.com/" style="fill-rule:evenodd;clip-rule:evenodd;stroke-linejoin:round;stroke-miterlimit:2;">
    <g transform="matrix(2.10373,0,0,0.160914,-2596.85,-132.065)">
        <path d="M1795.84,1553.06L1234.4,1553.06L1234.4,828.448C1244.48,1028.83 1261.82,1161.23 1281.52,1161.23C1301.12,1161.23 1318.39,1030.05 1328.48,831.228L1328.48,828.448C1338.55,1028.83 1355.9,1161.23 1375.59,1161.23C1395.19,1161.23 1412.47,1030.05 1422.56,831.228L1422.56,828.448C1432.63,1028.83 1449.98,1161.23 1469.67,1161.23C1489.27,1161.23 1506.55,1030.05 1516.64,831.228L1516.64,828.448C1526.71,1028.83 1544.06,1161.23 1563.75,1161.23C1583.35,1161.23 1600.63,1030.05 1610.72,831.228L1610.72,828.448C1620.79,1028.83 1638.14,1161.23 1657.83,1161.23C1677.43,1161.23 1694.71,1030.05 1704.8,831.228L1704.8,828.448C1714.87,1028.83 1732.22,1161.23 1751.91,1161.23C1769.66,1161.23 1785.51,1053.6 1795.84,885.56L1795.84,1553.06ZM1341.79,1275.57C1341.61,1274.32 1341.43,1273.06 1341.24,1271.79L1341.24,1275.57L1341.79,1275.57ZM1718.11,1275.57C1717.62,1272.23 1717.13,1268.81 1716.64,1265.32L1716.64,1275.57L1718.11,1275.57Z" style="fill:rgb(110,185,255);"/>
    </g>
    <g transform="matrix(1.89074,0,0,1.50948,-2294.08,-1411.28)">
        <rect x="1213.33" y="996.484" width="624.212" height="157.545" style="fill:rgb(110,185,255);"/>
    </g>
    <g transform="matrix(0.997468,0,0,0.997468,-1287.4,-1175.19)">
        <g transform="matrix(266.667,0,0,266.667,2451.78,1461.71)">
        </g>
        <text x="1309.91px" y="1461.71px" style="font-family:'DINCondensed-Bold', 'DIN Condensed';font-weight:700;font-stretch:condensed;font-size:266.667px;fill:white;">CONDOFLO<tspan x="2185.38px 2343.51px " y="1461.71px 1461.71px ">WS</tspan></text>
    </g>
</svg>
